<svg height="512pt" viewBox="-108 0 512 512" width="512pt" xmlns="http://www.w3.org/2000/svg"><path d="m295.550781 118.773438c0-19.6875-16.015625-35.703126-35.703125-35.703126h-.417968c-7.71875 0-14.871094 2.460938-20.71875 6.640626v-20.367188c0-19.6875-16.015626-35.703125-35.699219-35.703125h-.421875c-7.714844 0-14.871094 2.460937-20.714844 6.640625v-4.578125c0-19.6875-16.015625-35.703125-35.703125-35.703125h-.417969c-17.746094 0-32.507812 13.011719-35.246094 29.996094-5.929687-4.378906-13.253906-6.96875-21.171874-6.96875h-.421876c-19.683593 0-35.699218 16.015625-35.699218 35.699218v136.148438c-11.136719-12.757812-27.5-20.839844-45.722656-20.839844-4.136719 0-7.492188 3.355469-7.492188 7.492188v174.78125c0 21.90625 9.230469 43 25.328125 57.863281l16.523437 15.257813v45.378906c0 4.136718 3.355469 7.492187 7.492188 7.492187h195.460938c4.136718 0 7.492187-3.355469 7.492187-7.492187v-46.003906l19.511719-24.101563c15.285156-18.882813 23.703125-42.660156 23.703125-66.953125v-43.277344c.027343-.253906.039062-.507812.039062-.765625zm0 0" fill="#31bc98"/><g fill="#2ba07f"><path d="m259.847656 83.070312h-.417968c-6.179688 0-11.996094 1.582032-17.070313 4.355469 11.089844 6.0625 18.628906 17.839844 18.628906 31.347657v174.933593c0 .257813-.011719.511719-.039062.765625v43.277344c0 24.292969-8.417969 48.070312-23.703125 66.953125l-19.511719 24.101563v46.003906c0 4.136718-3.355469 7.492187-7.492187 7.492187h34.5625c4.136718 0 7.492187-3.355469 7.492187-7.492187v-46.003906l19.511719-24.101563c15.285156-18.882813 23.703125-42.660156 23.703125-66.953125v-43.277344c.023437-.253906.039062-.507812.039062-.765625v-174.933593c0-19.6875-16.015625-35.703126-35.703125-35.703126zm0 0"/><path d="m117.542969 199.042969c4.136719 0 7.492187-3.355469 7.492187-7.496094v-184.902344c-7.59375 5.429688-12.980468 13.753907-14.527344 23.351563-.152343-.109375-.304687-.214844-.457031-.320313v161.871094c0 4.140625 3.355469 7.496094 7.492188 7.496094zm0 0"/><path d="m174.382812 199.042969c4.136719 0 7.492188-3.355469 7.492188-7.496094v-155.84375c0-11.96875-5.925781-22.570313-14.988281-29.050781v184.894531c0 4.140625 3.355469 7.496094 7.496093 7.496094zm0 0"/><path d="m223.726562 40.296875v151.25c0 4.140625 3.355469 7.496094 7.492188 7.496094s7.492188-3.355469 7.492188-7.496094v-122.203125c0-11.964844-5.921876-22.566406-14.984376-29.046875zm0 0"/><path d="m246.140625 467.316406h-197.4375c-12.320313 0-22.34375 10.023438-22.34375 22.34375 0 12.316406 10.023437 22.339844 22.34375 22.339844h197.4375c12.320313 0 22.339844-10.023438 22.339844-22.339844 0-12.320312-10.019531-22.34375-22.339844-22.34375zm0 0"/></g><path d="m246.140625 467.316406h-33.289063c12.320313 0 22.34375 10.023438 22.34375 22.34375 0 12.316406-10.023437 22.339844-22.34375 22.339844h33.289063c12.320313 0 22.339844-10.023438 22.339844-22.339844 0-12.320312-10.019531-22.34375-22.339844-22.34375zm0 0" fill="#128763"/><path d="m121.84375 303.515625c-21.675781-9.917969-43.113281-14.363281-53.644531-16.101563v-51.386718c0-12.679688-3.847657-25.0625-11.035157-35.511719l-3.953124-5.746094v99.140625c0 3.824219 2.882812 7.035156 6.6875 7.449219.277343.027344 28.121093 3.160156 55.707031 15.78125 35.472656 16.230469 53.519531 39.792969 53.644531 70.042969.015625 4.085937 3.128906 7.65625 7.210938 7.808594 4.265624.15625 7.777343-3.257813 7.777343-7.488282 0-36.273437-21.578125-65.316406-62.394531-83.988281zm0 0" fill="#2ba07f"/></svg>